# xmcd
#
# Track frame offsets:
# 150
# 17462
# 32227
# 47890
# 62937
# 79602
# 97524
# 113925
# 129101
# 150096
# 166926
# 184306
# 197395
# 211697
# 227939
#
# Disc length: 3254 seconds
#
# Revision: 0
# Processed by: cddbd v1.4PL0 Copyright (c) Steve Scherf et al.
# Submitted via: Axialis_AX_CDPlayer 2.6
#
DISCID=ad0cb40f
DTITLE=Jo Dee Messina - Greatest His
DYEAR=1900
DGENRE=
TTITLE0=Was That My Life
TTITLE1=I'm Alright
TTITLE2=Heads Carolina, Tails California
TTITLE3=Bye-Bye
TTITLE4=Stand Beside Me
TTITLE5=Bring On The Rain (with Tim McGraw)
TTITLE6=Lesson in Leavin'
TTITLE7=That's The Way
TTITLE8=Burn
TTITLE9=Downtime
TTITLE10=Because You Love Me
TTITLE11=You're Not In Kansas Anymore
TTITLE12=Wishing Well
TTITLE13=You Belong In The Sun
TTITLE14=I Wish
EXTD=
EXTT0=
EXTT1=
EXTT2=
EXTT3=
EXTT4=
EXTT5=
EXTT6=
EXTT7=
EXTT8=
EXTT9=
EXTT10=
EXTT11=
EXTT12=
EXTT13=
EXTT14=
PLAYORDER=
